# Blender v2.82 (sub 7) OBJ File: ''
# www.blender.org
mtllib wall_block.mtl
o Cube_Cube.002
v -0.500000 -0.500000 0.500000
v -0.500000 0.500000 0.500000
v -0.500000 -0.500000 -0.500000
v -0.500000 0.500000 -0.500000
v 0.500000 -0.500000 0.500000
v 0.500000 0.500000 0.500000
v 0.500000 -0.500000 -0.500000
v 0.500000 0.500000 -0.500000
vt 0.600204 0.327810
vt 0.368591 0.559424
vt 0.368591 0.327810
vt 0.368010 0.571037
vt 0.600774 0.803801
vt 0.368010 0.803801
vt 0.368591 0.559424
vt 0.600204 0.327810
vt 0.600204 0.559424
vt 0.367839 0.569877
vt 0.601198 0.803235
vt 0.367839 0.803235
vt 0.600204 0.327810
vt 0.368591 0.559424
vt 0.368591 0.327810
vt 0.368591 0.559424
vt 0.600204 0.327810
vt 0.600204 0.559424
vt 0.600204 0.559424
vt 0.600774 0.571037
vt 0.368591 0.327810
vt 0.601198 0.569877
vt 0.600204 0.559424
vt 0.368591 0.327810
vn -1.0000 0.0000 0.0000
vn 0.0000 0.0000 -1.0000
vn 1.0000 0.0000 0.0000
vn 0.0000 0.0000 1.0000
vn 0.0000 -1.0000 0.0000
vn 0.0000 1.0000 0.0000
usemtl None
s off
f 2/1/1 3/2/1 1/3/1
f 4/4/2 7/5/2 3/6/2
f 8/7/3 5/8/3 7/9/3
f 6/10/4 1/11/4 5/12/4
f 7/13/5 1/14/5 3/15/5
f 4/16/6 6/17/6 8/18/6
f 2/1/1 4/19/1 3/2/1
f 4/4/2 8/20/2 7/5/2
f 8/7/3 6/21/3 5/8/3
f 6/10/4 2/22/4 1/11/4
f 7/13/5 5/23/5 1/14/5
f 4/16/6 2/24/6 6/17/6
